<svg fill="currentColor" width="145" height="150" viewBox="0 0 145 150"  xmlns="http://www.w3.org/2000/svg">
<path d="M85.6885 78.2855V52.5582H117.048C116.676 32.1235 95.9865 26.2185 85.6885 25.7284V0.0012331C136.858 -0.292792 146.442 52.0682 144.837 78.2855H85.6885Z" />
<mask id="mask0_12_3" style="mask-type:alpha" maskUnits="userSpaceOnUse" x="75" y="0" width="23" height="26">
<path d="M75.5974 12.8648C75.5974 19.9692 80.4628 25.7284 86.4647 25.7284C92.4665 25.7284 97.3319 19.9692 97.3319 12.8648C97.3319 5.76047 92.4665 0.00123596 86.4647 0.00123596C80.4628 0.00123596 75.5974 5.76047 75.5974 12.8648Z" fill="#FDD55B"/>
</mask>
<g mask="url(#mask0_12_3)">
<rect width="18.4139" height="31.4444" transform="matrix(-1 0 0 1 86.4646 -1.07073)" />
</g>
<mask id="mask1_12_3" style="mask-type:alpha" maskUnits="userSpaceOnUse" x="74" y="52" width="23" height="27">
<path d="M74.9764 65.4218C74.9764 72.5262 79.8419 78.2854 85.8437 78.2854C91.8455 78.2854 96.7109 72.5262 96.7109 65.4218C96.7109 58.3175 91.8455 52.5582 85.8437 52.5582C79.8419 52.5582 74.9764 58.3175 74.9764 65.4218Z" fill="#FDD55B"/>
</mask>
<g mask="url(#mask1_12_3)">
<rect width="18.4139" height="31.4444" transform="matrix(-1 0 0 1 85.8436 51.4863)" />
</g>
<circle cx="3.88912" cy="64.1054" r="2.41903" />
<circle cx="26.4666" cy="64.1054" r="2.41903" />
<circle cx="13.1621" cy="33.0612" r="2.41903" />
<circle cx="41.7872" cy="39.512" r="2.41903" />
<circle cx="41.384" cy="8.46782" r="2.41903" />
<circle cx="65.5743" cy="26.6105" r="2.41903" />
<circle cx="66.419" cy="2.41903" r="2.41903" />
<rect x="5.09863" y="63.2991" width="20.5617" height="1.61268" />
<rect x="2.87988" y="64.7693" width="33.396" height="1.61268" transform="rotate(-73.9825 2.87988 64.7693)" />
<rect x="12.7589" y="31.7354" width="36.4512" height="1.61268" transform="rotate(-40.4232 12.7589 31.7354)" />
<rect x="26.8699" y="63.3725" width="28.6764" height="1.61268" transform="rotate(-59.3366 26.8699 63.3725)" />
<rect x="41.9131" y="38.7036" width="27.9527" height="1.61268" transform="rotate(-28.1223 41.9131 38.7036)" />
<rect x="42" y="7.52109" width="24.6951" height="1.61268" transform="rotate(-12.9188 42 7.52109)" />
<rect x="14.13" y="33.0141" width="33.255" height="1.61268" transform="rotate(67.4584 14.13 33.0141)" />
<rect x="42.1903" y="7.66148" width="32.8162" height="1.61268" transform="rotate(89.6724 42.1903 7.66148)" />
<rect x="42.7664" y="8.46782" width="31.1569" height="1.61268" transform="rotate(37.3857 42.7664 8.46782)" />
<rect x="67.4487" y="3.04585" width="23.3839" height="1.61268" transform="rotate(91.2382 67.4487 3.04585)" />
<rect x="13.1217" y="31.8517" width="29.7385" height="1.61268" transform="rotate(13.0031 13.1217 31.8517)" />
<g clip-path="url(#clip0_12_3)">
<path d="M66.4523 132.716L64.9644 132.634C64.747 131.541 64.3708 130.507 63.8585 129.553L64.987 128.539C65.2916 128.266 65.4715 127.89 65.494 127.481C65.5164 127.072 65.3776 126.678 65.1058 126.374L63.4208 124.495C62.8744 123.884 61.8639 123.83 61.2565 124.375L60.0809 125.422C59.1967 124.84 58.2399 124.376 57.1756 124.053L57.263 122.461C57.3093 121.616 56.6727 120.885 55.8284 120.839L53.3081 120.701C52.4637 120.654 51.7614 121.312 51.7151 122.156L51.6277 123.748C50.5351 123.952 49.5271 124.309 48.5833 124.792L47.5299 123.622C46.9841 123.012 45.973 122.957 45.3619 123.503L43.4827 125.186C43.1813 125.455 42.9967 125.841 42.9746 126.244C42.9521 126.652 43.0892 127.046 43.3627 127.35L44.3734 128.483C43.7604 129.376 43.2728 130.362 42.9376 131.425L41.4492 131.344C40.6042 131.297 39.885 131.939 39.8387 132.781L39.7006 135.3C39.6542 136.145 40.2998 136.846 41.1447 136.892L42.6332 136.974C42.85 138.067 43.2259 139.107 43.7369 140.062L42.6082 141.079C42.303 141.352 42.123 141.73 42.1006 142.139C42.0781 142.548 42.2163 142.943 42.4892 143.248L44.1742 145.128C44.4477 145.432 44.8231 145.612 45.2315 145.635C45.6399 145.657 46.0333 145.519 46.3385 145.247L47.5185 144.199C48.4038 144.782 49.3667 145.247 50.4304 145.57L50.3432 147.16C50.2968 148.004 50.9237 148.722 51.7681 148.768L54.2884 148.906C55.1327 148.953 55.8447 148.309 55.8911 147.464L55.9783 145.874C57.0716 145.669 58.0734 145.313 59.0172 144.83L60.0659 145.997C60.3393 146.303 60.7153 146.483 61.1249 146.505C61.534 146.528 61.928 146.39 62.2326 146.117L64.113 144.434C64.4176 144.162 64.5969 143.785 64.6205 143.377C64.643 142.968 64.5041 142.575 64.2318 142.27L63.2227 141.131C63.8351 140.237 64.3225 139.244 64.6581 138.182L66.1466 138.264C66.991 138.31 67.7216 137.685 67.7679 136.84L67.9061 134.321C67.953 133.479 67.2966 132.762 66.4523 132.716ZM53.5342 139.605C50.8613 139.458 48.8117 137.192 48.9569 134.545C49.1022 131.897 51.3873 129.871 54.0602 130.018C56.7337 130.165 58.7847 132.428 58.6393 135.076C58.4935 137.724 56.2077 139.751 53.5342 139.605Z" />
</g>
<g clip-path="url(#clip1_12_3)">
<path d="M35.2046 89.2307L33.2928 89.3781C32.8306 88.0202 32.1759 86.7654 31.3611 85.6343L32.6292 84.1507C32.9717 83.751 33.1375 83.2403 33.0969 82.7147C33.0564 82.1899 32.8127 81.71 32.4146 81.3682L29.9475 79.2565C29.1472 78.5702 27.8489 78.6711 27.1664 79.4702L25.8438 81.0046C24.6174 80.411 23.3185 79.9809 21.9062 79.7489L21.7484 77.703C21.6647 76.6181 20.729 75.793 19.6441 75.8766L16.4058 76.1264C15.3209 76.2101 14.5361 77.1679 14.6198 78.2528L14.7776 80.2979C13.4182 80.7429 12.1928 81.3685 11.0705 82.144L9.529 80.8306C8.72953 80.1442 7.43049 80.2451 6.74326 81.0447L4.63065 83.5096C4.29177 83.9042 4.1214 84.4272 4.16134 84.9449C4.20181 85.4697 4.44311 85.9483 4.84358 86.2907L6.32447 87.5653C5.69351 88.808 5.23818 90.1483 4.99045 91.5611L3.07789 91.7086C1.99217 91.7923 1.18319 92.7322 1.26669 93.8148L1.51628 97.0508C1.60002 98.1365 2.54205 98.9217 3.62777 98.8379L5.54033 98.6904C6.00177 100.048 6.65707 101.311 7.47034 102.442L6.20261 103.931C5.85938 104.331 5.69372 104.843 5.73426 105.369C5.7748 105.895 6.01784 106.375 6.41752 106.718L8.88482 108.831C9.28528 109.173 9.79445 109.339 10.3193 109.299C10.8441 109.258 11.3225 109.015 11.6658 108.617L12.9939 107.081C14.2218 107.675 15.5286 108.105 16.9402 108.338L17.0978 110.38C17.1815 111.465 18.1024 112.274 19.1874 112.19L22.4257 111.941C23.5106 111.857 24.31 110.915 24.2263 109.831L24.0687 107.787C25.4287 107.341 26.6464 106.717 27.7687 105.941L29.3038 107.253C29.7043 107.597 30.2143 107.763 30.7407 107.722C31.2663 107.682 31.7455 107.439 32.088 107.04L34.2022 104.575C34.5447 104.176 34.7097 103.665 34.6708 103.14C34.6302 102.615 34.3866 102.137 33.9877 101.794L32.5077 100.511C33.1378 99.2678 33.5917 97.9189 33.8404 96.5076L35.7529 96.3601C36.8379 96.2765 37.664 95.3549 37.5803 94.2692L37.3307 91.0332C37.248 89.9506 36.2895 89.147 35.2046 89.2307ZM19.8908 100.203C16.4563 100.468 13.4586 97.9234 13.1963 94.5227C12.9339 91.1196 15.5063 88.1498 18.9407 87.8849C22.3759 87.6199 25.3749 90.1601 25.6374 93.5631C25.8989 96.9647 23.326 99.9378 19.8908 100.203Z" />
</g>
<g clip-path="url(#clip2_12_3)">
<path d="M36.1802 129.736L35.2283 128.921C35.6419 128.08 35.9189 127.197 36.0647 126.298L37.3363 126.198C37.6793 126.171 37.9919 126.012 38.2159 125.75C38.4397 125.489 38.5487 125.154 38.5225 124.812L38.3574 122.697C38.3046 122.01 37.6578 121.456 36.973 121.511L35.6528 121.609C35.36 120.768 34.9582 119.969 34.4125 119.209L35.2846 118.191C35.7471 117.65 35.6957 116.837 35.1555 116.374L33.543 114.994C33.0028 114.531 32.1976 114.612 31.7351 115.152L30.8632 116.17C30.0293 115.748 29.1737 115.471 28.2966 115.311L28.1907 113.992C28.1382 113.305 27.491 112.752 26.804 112.804L24.6886 112.967C24.3497 112.993 24.0293 113.156 23.8086 113.414C23.5849 113.676 23.4754 114.008 23.5023 114.352L23.5981 115.625C22.7324 115.908 21.9027 116.317 21.1355 116.856L20.1832 116.041C19.6426 115.578 18.8344 115.639 18.3729 116.178L16.9934 117.789C16.5306 118.33 16.6034 119.128 17.144 119.591L18.0963 120.406C17.6823 121.247 17.402 122.133 17.2553 123.032L15.9814 123.135C15.6381 123.161 15.3248 123.321 15.1007 123.583C14.8767 123.845 14.7669 124.179 14.7935 124.522L14.958 126.639C14.9849 126.982 15.1437 127.294 15.405 127.518C15.6663 127.742 15.9997 127.85 16.3427 127.824L17.666 127.728C17.9592 128.57 18.3649 129.372 18.91 130.132L18.0391 131.149C17.5766 131.689 17.6287 132.489 18.169 132.951L19.7814 134.332C20.3217 134.794 21.1262 134.728 21.5887 134.188L22.4599 133.171C23.2946 133.593 24.1458 133.867 25.0229 134.027L25.1267 135.342C25.153 135.686 25.3122 135.998 25.5743 136.223C25.836 136.447 26.1698 136.556 26.5124 136.53L28.6285 136.367C28.9711 136.341 29.2833 136.181 29.5078 135.92C29.7319 135.658 29.8399 135.325 29.814 134.982L29.7224 133.705C30.588 133.422 31.421 133.008 32.1879 132.47L33.1402 133.285C33.6804 133.748 34.4881 133.704 34.9509 133.163L36.3304 131.552C36.7923 131.013 36.7205 130.199 36.1802 129.736ZM24.032 127.734C22.3218 126.27 22.1113 123.709 23.561 122.016C25.0117 120.321 27.5729 120.137 29.2831 121.601C30.9936 123.065 31.2066 125.625 29.7558 127.319C28.3054 129.013 25.7425 129.199 24.032 127.734Z" />
</g>
<path d="M45.396 103.668L33 115L34.5 117.5L47.6343 105.452L60.5447 105.586L67.7274 98.6876L65.7721 97.1297L59.7777 103.093L50.0886 103.174L55.9426 97.5322L54.025 95.6146L47.7423 101.304L48.0411 94.51L52.012 88.7237L49.7452 87.5569L45.9713 93.5053L45.396 103.668Z" />
<ellipse cx="52.6828" cy="85.6434" rx="3.83511" ry="3.64336" />
<ellipse cx="56.326" cy="95.0394" rx="3.25985" ry="3.06809" />
<ellipse cx="68.2149" cy="96.5734" rx="3.25985" ry="3.06809" />
<path fill-rule="evenodd" clip-rule="evenodd" d="M116.427 96.6619L142.408 96.662C137.483 121.826 122.261 149.433 85.0674 149.219V123.492C95.3654 123.002 116.055 117.097 116.427 96.6619Z" />
<mask id="mask2_12_3" style="mask-type:alpha" maskUnits="userSpaceOnUse" x="74" y="123" width="23" height="27">
<path d="M74.9764 136.355C74.9764 129.251 79.8419 123.492 85.8437 123.492C91.8455 123.492 96.7109 129.251 96.7109 136.355C96.7109 143.46 91.8455 149.219 85.8437 149.219C79.8419 149.219 74.9764 143.46 74.9764 136.355Z" fill="#FDD55B"/>
</mask>
<g mask="url(#mask2_12_3)">
<rect x="85.8436" y="150.291" width="18.4139" height="31.4444" transform="rotate(-180 85.8436 150.291)" />
</g>
<mask id="mask3_12_3" style="mask-type:alpha" maskUnits="userSpaceOnUse" x="74" y="123" width="23" height="27">
<path d="M74.9764 136.355C74.9764 129.251 79.8419 123.492 85.8437 123.492C91.8455 123.492 96.7109 129.251 96.7109 136.355C96.7109 143.46 91.8455 149.219 85.8437 149.219C79.8419 149.219 74.9764 143.46 74.9764 136.355Z" fill="#FDD55B"/>
</mask>
<g mask="url(#mask3_12_3)">
<rect x="85.8436" y="150.291" width="18.4139" height="31.4444" transform="rotate(-180 85.8436 150.291)" />
</g>
<defs>
<clipPath id="clip0_12_3">
<rect width="28.1102" height="28.1102"  transform="translate(40.54 120) rotate(3.14055)"/>
</clipPath>
<clipPath id="clip1_12_3">
<rect width="36.1719" height="36.1719"  transform="translate(0 77.3918) rotate(-4.41043)"/>
</clipPath>
<clipPath id="clip2_12_3">
<rect width="23.6402" height="23.6402"  transform="translate(26.3744 107) rotate(40.568)"/>
</clipPath>
</defs>
</svg>
