<svg width="1288" height="541" viewBox="0 0 1288 541" fill="none" xmlns="http://www.w3.org/2000/svg">
<rect x="176" y="328" width="100" height="173" fill="#F5F5F5"/> <!-- warna kotak kiri bawah -->
<line x1="921" y1="33.5" x2="1031" y2="33.5" stroke="#292A2E"/>
<line x1="965.008" y1="68.5001" x2="1031.01" y2="69.5001" stroke="#292A2E"/>
<path d="M15.96 501.5H405.5" stroke="#292A2E"/>
<circle cx="3.5" cy="325.5" r="3" fill="#292A2E" stroke="#292A2E"/>
<circle cx="886.5" cy="357.5" r="3" fill="#292A2E" stroke="#292A2E"/>
<circle cx="913.5" cy="357.5" r="3" stroke="#292A2E"/>
<circle cx="904.5" cy="357.5" r="3" stroke="#292A2E"/>
<circle cx="895.5" cy="357.5" r="3" fill="#292A2E" stroke="#292A2E"/>
<circle cx="1257.5" cy="344.5" r="30" fill="white" stroke="#292A2E"/>
<rect x="1058" y="284" width="62" height="61" fill="#292A2E"/>
<rect x="908.5" y="15.5" width="139" height="72" stroke="#292A2E"/>
<circle cx="6.5" cy="6.5" r="6.5" transform="matrix(1 0 0 -1 173 341)" fill="#222222"/>
<circle cx="6.5" cy="6.5" r="6.5" transform="matrix(1 0 0 -1 246 369)" fill="#222222"/>
<circle cx="6.5" cy="6.5" r="6.5" transform="matrix(1 0 0 -1 197 369)" fill="#222222"/>
<circle cx="6.5" cy="6.5" r="6.5" transform="matrix(1 0 0 -1 244 425)" fill="#222222"/>
<circle cx="6.5" cy="6.5" r="6.5" transform="matrix(1 0 0 -1 195 425)" fill="#222222"/>
<circle cx="6.5" cy="6.5" r="6.5" transform="matrix(1 0 0 -1 244 481)" fill="#222222"/>
<circle cx="6.5" cy="6.5" r="6.5" transform="matrix(1 0 0 -1 195 481)" fill="#222222"/>
<path d="M279.5 334.5C279.5 330.91 280.09 328 276.5 328C272.91 328 270 330.91 270 334.5C270 338.09 272.91 341 276.5 341C280.09 341 279.5 338.09 279.5 334.5Z" fill="#222222"/>
<circle cx="6.5" cy="6.5" r="6.5" transform="matrix(1 0 0 -1 220 341)" fill="#222222"/>
<path d="M186 390.5C186 386.91 183.09 384 179.5 384C175.91 384 174.5 386.91 174.5 390.5C174.5 394.09 175.91 397 179.5 397C183.09 397 186 394.09 186 390.5Z" fill="#222222"/>
<circle cx="6.5" cy="6.5" r="6.5" transform="matrix(1 0 0 -1 270 397)" fill="#222222"/>
<circle cx="6.5" cy="6.5" r="6.5" transform="matrix(1 0 0 -1 220 397)" fill="#222222"/>
<circle cx="6.5" cy="6.5" r="6.5" transform="matrix(1 0 0 -1 173 453)" fill="#222222"/>
<path d="M278.5 445.5C278.5 441.91 278.5 440 276.5 440C272.91 440 270 442.91 270 446.5C270 450.09 272.91 453 276.5 453C280.09 453 278.5 449.09 278.5 445.5Z" fill="#222222"/>
<circle cx="6.5" cy="6.5" r="6.5" transform="matrix(1 0 0 -1 220 453)" fill="#222222"/>
<path d="M186 502.5C186 498.91 183.09 496 179.5 496C175.91 496 173 498.91 173 502.5C173 506.09 175.91 502 179.5 502C183.09 502 186 506.09 186 502.5Z" fill="#222222"/>
<path d="M283 502.5C283 498.91 280.09 496 276.5 496C272.91 496 270 498.91 270 502.5C270 506.09 272.91 502 276.5 502C280.09 502 283 506.09 283 502.5Z" fill="#222222"/>
<circle cx="6.5" cy="6.5" r="6.5" transform="matrix(1 0 0 -1 220 509)" fill="#222222"/>
<path d="M109.5 403L142 501H77L109.5 403Z" fill="white"/>
<ellipse cx="18.6896" cy="9.13313" rx="18.6896" ry="9.13313" transform="matrix(0.648596 -0.761133 -0.776588 -0.630009 117.185 415.958)" fill="#61B952" fill-opacity="0.86"/>
<ellipse cx="18.6896" cy="9.13313" rx="18.6896" ry="9.13313" transform="matrix(-0.555371 -0.831602 -0.817936 0.575309 117.7 405.084)" fill="#61B952" fill-opacity="0.86"/>
<path d="M20.9398 494.606C20.6795 494.382 20.1439 494.322 19.324 494.706C18.5387 495.073 17.6425 495.79 16.8453 496.783C16.0481 497.776 15.5316 498.82 15.3261 499.687C15.1115 500.592 15.2663 501.126 15.5266 501.35C15.7869 501.575 16.3226 501.635 17.1425 501.251C17.9277 500.883 18.8239 500.167 19.6212 499.174C20.4184 498.18 20.9349 497.137 21.1404 496.27C21.355 495.365 21.2001 494.83 20.9398 494.606Z" fill="#61B952" fill-opacity="0.86" stroke="#292A2E"/>
<path d="M11.2505 494.004C10.9795 494.207 10.7775 494.735 10.902 495.68C11.0211 496.584 11.4264 497.696 12.1096 498.782C12.7928 499.868 13.5984 500.681 14.3288 501.128C15.0927 501.596 15.6182 501.581 15.8892 501.379C16.1601 501.176 16.3621 500.648 16.2376 499.703C16.1186 498.799 15.7133 497.687 15.0301 496.601C14.3468 495.515 13.5412 494.702 12.8108 494.255C12.0469 493.787 11.5215 493.802 11.2505 494.004Z" fill="#61B952" fill-opacity="0.86" stroke="#292A2E"/>
<ellipse cx="3.06984" cy="1.48385" rx="3.06984" ry="1.48385" transform="matrix(0.625945 -0.779867 -0.757698 -0.652605 272.578 328.893)" fill="#61B952" fill-opacity="0.86"/>
<ellipse cx="3.09018" cy="1.47792" rx="3.09018" ry="1.47792" transform="matrix(-0.532449 -0.846462 -0.801245 0.598336 272.659 327.231)" fill="#61B952" fill-opacity="0.86"/>
<rect x="82.5" y="23.5" width="114" height="114" stroke="#292A2E" stroke-dasharray="12 12"/>
<path d="M1218.45 259.597C1218.33 259.494 1218.12 259.426 1217.71 259.529C1217.3 259.632 1216.78 259.89 1216.17 260.305C1214.93 261.132 1213.42 262.502 1211.78 264.173C1208.51 267.509 1204.83 271.959 1202.05 275.417C1199.3 278.844 1197.29 282.33 1196.25 285.183C1195.73 286.611 1195.46 287.854 1195.45 288.836C1195.45 289.824 1195.7 290.465 1196.11 290.823C1196.53 291.181 1197.18 291.318 1198.12 291.129C1199.05 290.942 1200.18 290.443 1201.44 289.652C1203.96 288.073 1206.9 285.385 1209.65 281.958C1212.38 278.552 1215.12 273.331 1216.88 268.707C1217.76 266.396 1218.39 264.259 1218.66 262.591C1218.8 261.756 1218.84 261.062 1218.78 260.535C1218.73 259.993 1218.59 259.718 1218.45 259.597Z" fill="#61B952" fill-opacity="0.86" stroke="#292A2E"/>
<path d="M1181.02 265.13C1180.87 265.248 1180.7 265.509 1180.59 266.01C1180.48 266.5 1180.43 267.149 1180.46 267.931C1180.51 269.494 1180.84 271.492 1181.35 273.624C1182.38 277.893 1184.12 282.575 1185.77 285.192C1187.43 287.826 1189.4 289.829 1191.23 290.947C1193.09 292.086 1194.64 292.225 1195.61 291.499C1196.58 290.774 1197.03 289.144 1196.72 286.842C1196.43 284.581 1195.42 281.856 1193.77 279.222C1192.08 276.55 1189.35 272.563 1186.75 269.477C1185.44 267.931 1184.19 266.633 1183.12 265.837C1182.59 265.437 1182.13 265.185 1181.76 265.078C1181.39 264.972 1181.17 265.024 1181.02 265.13Z" fill="#61B952" fill-opacity="0.86" stroke="#292A2E"/>
<path d="M1166.07 288H1227.9L1226.51 295.408L1226.51 295.424L1226.5 295.44L1220.56 344.5H1174.43L1167 295.432L1166.07 288Z" fill="#D9D9D9" stroke="#292A2E"/> <!-- warna segitiga dikiri bawah -->
<path d="M1196.77 288.057L1196.72 278.521C1196.66 264.979 1193.54 251.626 1187.6 239.458L1182 228" stroke="#292A2E"/>
<path d="M1181.53 227.475C1182.85 229.218 1182.66 232.019 1181 235.292C1179.36 238.53 1176.34 242.071 1172.31 245.121C1168.29 248.171 1164.06 250.122 1160.5 250.828C1156.9 251.542 1154.15 250.96 1152.83 249.217C1151.51 247.474 1151.7 244.673 1153.36 241.401C1155 238.162 1158.02 234.621 1162.05 231.571C1166.07 228.522 1170.3 226.57 1173.86 225.864C1177.46 225.15 1180.21 225.732 1181.53 227.475Z" fill="#EDE529" fill-opacity="0.67" stroke="#292A2E"/> <!-- warna bunga dikanan -->
<path d="M1215.59 216.825C1216.15 218.938 1214.92 221.462 1212.15 223.863C1209.4 226.24 1205.26 228.375 1200.39 229.676C1195.51 230.978 1190.86 231.187 1187.29 230.493C1183.69 229.792 1181.37 228.215 1180.8 226.102C1180.24 223.99 1181.47 221.465 1184.24 219.064C1186.99 216.687 1191.12 214.552 1196 213.251C1200.88 211.949 1205.53 211.741 1209.1 212.434C1212.7 213.135 1215.02 214.712 1215.59 216.825Z" fill="#EDE529" fill-opacity="0.67" stroke="#292A2E"/>
<path d="M1163.99 199.036C1165.87 197.917 1168.63 198.409 1171.7 200.422C1174.73 202.415 1177.92 205.812 1180.5 210.15C1183.09 214.488 1184.56 218.905 1184.86 222.524C1185.17 226.181 1184.29 228.845 1182.41 229.964C1180.53 231.083 1177.77 230.591 1174.7 228.577C1171.66 226.585 1168.48 223.188 1165.9 218.85C1163.31 214.511 1161.84 210.095 1161.54 206.476C1161.23 202.819 1162.11 200.155 1163.99 199.036Z" fill="#EDE529" fill-opacity="0.67" stroke="#292A2E"/>
<line x1="876" y1="344.5" x2="1227" y2="344.5" stroke="#292A2E"/>
<line x1="10" y1="325.5" x2="55" y2="325.5" stroke="#292A2E"/>
<line x1="10" y1="334.5" x2="36" y2="334.5" stroke="#292A2E"/>
<rect x="1189.71" y="481.707" width="40.8861" height="40.8861" transform="rotate(45.173 1189.71 481.707)" stroke="#292A2E" stroke-dasharray="12 12"/>
<line x1="1229" y1="504.5" x2="1274" y2="504.5" stroke="#292A2E"/>
<line x1="1229" y1="513.5" x2="1255" y2="513.5" stroke="#292A2E"/>
<path d="M1038.77 176.367C1039.72 171.147 1034.32 167.07 1029.56 169.414C1025.24 171.539 1024.68 177.466 1028.52 180.365C1032.36 183.264 1037.9 181.1 1038.77 176.367Z" fill="white" stroke="#292A2E"/>
<path d="M1033.15 196.376C1031.41 191.88 1027.27 188.756 1022.47 188.31C1013.06 187.438 1006.02 196.762 1009.44 205.569C1011.18 210.065 1015.32 213.189 1020.12 213.634C1029.52 214.507 1036.56 205.183 1033.15 196.376Z" fill="white"/>
<circle cx="251.5" cy="193.107" r="15" stroke="#292A2E" stroke-linecap="round"/>
<circle cx="914.5" cy="188.5" r="4" fill="#292A2E" stroke="#292A2E" stroke-linecap="round"/>
<circle cx="13.5" cy="4.5" r="4.5" fill="#292A2E"/>
<circle cx="168.5" cy="255.5" r="4.5" fill="#292A2E"/>
<circle cx="1115.5" cy="87.5" r="4.5" fill="#292A2E"/>
<circle cx="1214.5" cy="114.5" r="4" stroke="#292A2E" stroke-linecap="round"/>
<circle cx="1209.5" cy="47.5" r="13" stroke="#292A2E" stroke-linecap="round"/>
<circle cx="1226.5" cy="79.5" r="7" stroke="#292A2E" stroke-linecap="round"/>
<rect x="258.631" y="200.381" width="14.3109" height="14.3109" transform="rotate(49.3481 258.631 200.381)" fill="#292A2E"/>
<path d="M302.231 97.7164C300.621 88.8789 309.762 81.9769 317.821 85.9447C325.127 89.542 326.08 99.5771 319.58 104.485C313.081 109.392 303.69 105.729 302.231 97.7164Z" fill="white"/>
<path d="M312.295 129.198C314.966 122.309 321.304 117.523 328.661 116.841C343.07 115.504 353.855 129.788 348.625 143.281C345.954 150.17 339.616 154.956 332.259 155.638C317.85 156.975 307.065 142.691 312.295 129.198Z" fill="white" stroke="#292A2E"/>
</svg>
